<svg width="157" height="157" viewBox="0 0 157 157" fill="none" xmlns="http://www.w3.org/2000/svg">
<path d="M127.439 33.312H123.031V0.941406H33.9611V33.312H29.5527C13.462 33.312 0.371094 46.403 0.371094 62.4936V100.581C0.371094 116.671 13.4617 129.762 29.5527 129.762H57.6061C56.122 134.57 54.1227 140.036 51.5739 144.942C48.1317 151.568 54.942 158.857 61.782 155.897C70.4567 152.147 83.053 144.581 94.267 129.762H127.439C143.53 129.762 156.621 116.671 156.621 100.581V62.4936C156.621 46.403 143.53 33.312 127.439 33.312H127.439Z" fill="white"/>
<path d="M127.445 38.2246H29.5578C16.155 38.2246 5.29004 49.0896 5.29004 62.4924V100.579C5.29004 113.982 16.155 124.847 29.5578 124.847H64.1044C62.64 130.532 59.9516 139.484 55.9397 147.206C54.6244 149.737 57.2188 152.518 59.8372 151.386C67.77 147.956 80.1482 140.659 91.0432 125.873C91.2819 125.549 91.4385 125.201 91.5322 124.847H127.445C140.848 124.847 151.713 113.982 151.713 100.579V62.4924C151.713 49.0896 140.848 38.2246 127.445 38.2246Z" fill="#776CFF"/>
<path d="M38.8741 5.85156H118.117V100.401H38.8741V5.85156Z" fill="#CAEAED"/>
<path d="M121.517 56.9229L78.4991 84.6354L35.4813 56.9229V112.348H121.517V56.9229Z" fill="#FF3D81"/>
<path d="M117.667 109.725L82.9872 85.2747C82.6344 85.0263 82.5503 84.5388 82.7987 84.1863C83.0472 83.8338 83.535 83.75 83.8872 83.9978L118.567 108.448C118.92 108.697 119.004 109.184 118.755 109.537C118.506 109.891 118.018 109.973 117.667 109.725Z" fill="#9B377F"/>
<path d="M38.2387 109.536C37.9903 109.184 38.0747 108.696 38.4272 108.448L73.1065 83.9974C73.9509 83.4015 74.8522 84.6787 74.0068 85.2743L39.3275 109.725C38.9772 109.972 38.4893 109.891 38.2387 109.536Z" fill="#9B377F"/>
<path d="M78.4977 105.577C89.1699 105.577 97.8215 96.9257 97.8215 86.2534C97.8215 75.5812 89.1699 66.9297 78.4977 66.9297C67.8255 66.9297 59.174 75.5812 59.174 86.2534C59.174 96.9257 67.8255 105.577 78.4977 105.577Z" fill="#FCC836"/>
<path d="M77.0763 100.98C73.8263 100.98 70.7775 99.8274 68.4263 97.4765C65.5979 94.648 64.6204 90.5768 64.6204 86.5774C64.6204 77.8112 69.2229 71.3105 78.9794 71.3105C87.8466 71.3105 92.9057 76.4074 92.9057 85.4965C92.9057 89.934 91.4635 94.9249 86.9804 94.9249C84.4807 94.9249 82.9007 93.4584 82.526 91.8974C81.8338 92.734 81.0769 93.3971 80.255 93.8868C77.7757 95.3671 71.7563 94.9702 71.7563 89.7349C71.7563 84.7059 77.2485 84.588 81.9632 84.588V83.8527C81.9632 81.4777 80.5241 80.609 78.1572 80.609C76.946 80.609 75.91 80.7696 74.8054 81.4521C74.2785 81.7793 73.741 81.8893 73.3563 81.409C72.985 80.9446 72.7941 80.333 72.7941 79.9599C72.7941 78.158 76.7488 77.408 78.676 77.408C80.9269 77.408 83.1407 78.1187 84.45 79.9384C85.0404 80.7602 85.3363 81.8055 85.3363 83.074V90.3399C85.5179 91.4746 86.0997 92.459 87.2394 92.459C89.5644 92.459 89.8779 88.4243 89.8779 86.1012C89.8779 78.6321 86.556 74.0777 78.9354 74.0777C71.181 74.0777 67.6907 78.7965 67.6907 86.5334C67.6907 89.3593 68.1772 92.3549 69.7882 94.6646C71.2416 96.7499 73.701 98.2112 77.5947 98.2112C79.285 98.2112 80.6007 98.0346 82.3522 97.3246C83.1335 97.0059 83.9454 96.8205 84.3854 97.5405C84.8297 98.2734 84.8594 98.8774 83.9525 99.4652C82.2991 100.534 79.0691 100.979 77.0757 100.979L77.0763 100.98ZM82.0935 88.524V86.7505C79.161 86.7505 75.4763 86.6612 75.4763 89.6915C75.4763 93.6968 82.0935 92.0643 82.0935 88.524Z" fill="white"/>
<path d="M51.2819 21.64C53.5451 21.64 55.3797 19.8053 55.3797 17.5421C55.3797 15.279 53.5451 13.4443 51.2819 13.4443C49.0187 13.4443 47.1841 15.279 47.1841 17.5421C47.1841 19.8053 49.0187 21.64 51.2819 21.64Z" fill="#5ED4BE"/>
<path d="M60.5834 13.4443H109.812V17.5421H60.5834V13.4443Z" fill="#5ED4BE"/>
<path d="M111.512 27.8545H45.4908C45.0593 27.8545 44.7096 27.5048 44.7096 27.0732C44.7096 26.6417 45.0593 26.292 45.4908 26.292H111.512C111.944 26.292 112.293 26.6417 112.293 27.0732C112.293 27.5048 111.944 27.8545 111.512 27.8545Z" fill="white"/>
<path d="M59.1786 36.3066H45.4921C45.0605 36.3066 44.7108 35.957 44.7108 35.5254C44.7108 35.0938 45.0605 34.7441 45.4921 34.7441H59.1786C59.6102 34.7441 59.9599 35.0938 59.9599 35.5254C59.9599 35.957 59.6102 36.3066 59.1786 36.3066Z" fill="#776CFF"/>
<path d="M59.1786 43.207H45.4921C45.0605 43.207 44.7108 42.8573 44.7108 42.4258C44.7108 41.9942 45.0605 41.6445 45.4921 41.6445H59.1786C59.6102 41.6445 59.9599 41.9942 59.9599 42.4258C59.9599 42.8573 59.6102 43.207 59.1786 43.207Z" fill="#776CFF"/>
<path d="M111.514 51.8359H55.3837C54.9521 51.8359 54.6024 51.4863 54.6024 51.0547C54.6024 50.6231 54.9521 50.2734 55.3837 50.2734H111.514C111.946 50.2734 112.295 50.6231 112.295 51.0547C112.295 51.4863 111.946 51.8359 111.514 51.8359Z" fill="#776CFF"/>
<path d="M111.513 58.5645H45.4921C45.0605 58.5645 44.7108 58.2148 44.7108 57.7832C44.7108 57.3516 45.0605 57.002 45.4921 57.002H111.513C111.945 57.002 112.295 57.3516 112.295 57.7832C112.295 58.2148 111.945 58.5645 111.513 58.5645Z" fill="#776CFF"/>
</svg>
