<svg width="140" height="31" viewBox="0 0 140 31" fill="none" xmlns="http://www.w3.org/2000/svg">
<path fill-rule="evenodd" clip-rule="evenodd" d="M3.90588 24.6965C4.4186 25.3563 4.9852 25.9721 5.59907 26.5373C6.15165 27.0461 6.74254 27.514 7.36691 27.936C7.71488 28.1712 8.07325 28.3922 8.44118 28.5982C8.82105 28.8108 9.21111 29.0074 9.61046 29.187C11.4862 30.0306 13.5667 30.5 15.7568 30.5C17.7795 30.5 19.7087 30.0996 21.4695 29.3738C21.8808 29.2043 22.283 29.017 22.675 28.8128C23.0475 28.6188 23.4109 28.4097 23.7643 28.1862C24.407 27.7796 25.0167 27.3256 25.5884 26.829C26.2185 26.2818 26.8024 25.6829 27.3336 25.0389C27.8932 24.3605 28.3944 23.632 28.8293 22.8613C29.0702 22.4345 29.2908 21.9947 29.4897 21.5432C30.3044 19.6945 30.7568 17.6501 30.7568 15.5C30.7568 7.2157 24.0411 0.5 15.7568 0.5C7.47254 0.5 0.756805 7.2157 0.756805 15.5C0.756805 17.3915 1.10691 19.2012 1.74584 20.8679C2.02887 21.6062 2.36857 22.3164 2.75962 22.9932C3.10326 23.588 3.48655 24.157 3.90588 24.6965ZM4.74996 21.4296C5.03415 21.956 5.35501 22.4597 5.70911 22.9373L8.46106 20.2525C12.3454 16.4629 18.5432 16.4629 22.4275 20.2525L25.5366 23.2857C25.9049 22.8237 26.2411 22.335 26.5419 21.823L22.4275 17.809C18.5432 14.0194 12.3454 14.0194 8.46106 17.809L4.74996 21.4296ZM27.6369 19.3986C28.0392 18.1718 28.2568 16.8613 28.2568 15.5C28.2568 8.5964 22.6604 3 15.7568 3C8.85324 3 3.25681 8.5964 3.25681 15.5C3.25681 16.6891 3.42284 17.8394 3.733 18.929L6.71525 16.0195C11.5706 11.2825 19.3179 11.2825 24.1733 16.0195L27.6369 19.3986ZM23.7916 25.076L20.6817 22.0419C17.7685 19.1997 13.1201 19.1997 10.2069 22.0419L7.39163 24.7885C7.94197 25.2845 8.53662 25.7322 9.16891 26.1251L11.9526 23.4093C13.8947 21.5145 16.9937 21.5145 18.9358 23.4093L21.9567 26.3565C22.6073 25.9842 23.2212 25.5551 23.7916 25.076ZM19.4825 27.4353L17.19 25.1988C16.2189 24.2514 14.6695 24.2514 13.6984 25.1988L11.5652 27.2799C12.8755 27.7462 14.2865 28 15.7568 28C17.0544 28 18.3058 27.8023 19.4825 27.4353Z" fill="#808080"/>
<path d="M40.7568 24.94V6.2733H52.8101V9.02H44.1701V14.2467H51.1568V16.94H44.1701V24.94H40.7568Z" fill="#808080"/>
<path d="M57.2046 9.65999C56.5824 9.65999 56.0668 9.47329 55.6579 9.09999C55.2668 8.72669 55.0713 8.25549 55.0713 7.68669C55.0713 7.11779 55.2668 6.65549 55.6579 6.29999C56.0668 5.92669 56.5824 5.73999 57.2046 5.73999C57.8268 5.73999 58.3335 5.92669 58.7246 6.29999C59.1335 6.65549 59.3379 7.11779 59.3379 7.68669C59.3379 8.25549 59.1335 8.72669 58.7246 9.09999C58.3335 9.47329 57.8268 9.65999 57.2046 9.65999ZM55.4979 24.94V11.7133H58.9113V24.94H55.4979Z" fill="#808080"/>
<path d="M62.4737 24.94V11.7133H65.5137L65.8337 14.1933C66.3137 13.34 66.9626 12.6644 67.7803 12.1667C68.6159 11.6511 69.5937 11.3933 70.7137 11.3933V14.9933H69.7537C69.007 14.9933 68.3403 15.1089 67.7537 15.34C67.167 15.5711 66.7048 15.9711 66.367 16.54C66.047 17.1089 65.887 17.9 65.887 18.9133V24.94H62.4737Z" fill="#808080"/>
<path d="M73.0466 24.94V11.7133H76.0599L76.3532 13.5C76.7799 12.86 77.3399 12.3533 78.0332 11.98C78.7444 11.5889 79.5621 11.3933 80.4866 11.3933C82.531 11.3933 83.9799 12.1844 84.8332 13.7667C85.3132 13.0378 85.9532 12.46 86.7532 12.0333C87.571 11.6067 88.4599 11.3933 89.4199 11.3933C91.1444 11.3933 92.4688 11.9089 93.3932 12.94C94.3177 13.9711 94.7799 15.4822 94.7799 17.4733V24.94H91.3666V17.7933C91.3666 16.6555 91.1444 15.7844 90.6999 15.18C90.2732 14.5755 89.6066 14.2733 88.6999 14.2733C87.7755 14.2733 87.0288 14.6111 86.4599 15.2867C85.9088 15.9622 85.6332 16.9044 85.6332 18.1133V24.94H82.2199V17.7933C82.2199 16.6555 81.9977 15.7844 81.5532 15.18C81.1088 14.5755 80.4244 14.2733 79.4999 14.2733C78.5932 14.2733 77.8555 14.6111 77.2866 15.2867C76.7355 15.9622 76.4599 16.9044 76.4599 18.1133V24.94H73.0466Z" fill="#808080"/>
<path d="M103.487 25.26C102.314 25.26 101.283 25.0733 100.394 24.7C99.5052 24.3089 98.7942 23.7755 98.2607 23.1C97.7274 22.4244 97.4074 21.6422 97.3008 20.7533H100.741C100.847 21.2689 101.132 21.7133 101.594 22.0867C102.074 22.4422 102.687 22.62 103.434 22.62C104.181 22.62 104.723 22.4689 105.061 22.1667C105.416 21.8644 105.594 21.5178 105.594 21.1267C105.594 20.5578 105.345 20.1755 104.847 19.98C104.35 19.7667 103.656 19.5622 102.767 19.3667C102.199 19.2422 101.621 19.0911 101.034 18.9133C100.447 18.7355 99.9053 18.5133 99.4074 18.2467C98.9274 17.9622 98.5363 17.6067 98.2341 17.18C97.9318 16.7355 97.7807 16.1933 97.7807 15.5533C97.7807 14.38 98.243 13.3933 99.1674 12.5933C100.11 11.7933 101.425 11.3933 103.114 11.3933C104.679 11.3933 105.923 11.7578 106.847 12.4867C107.79 13.2155 108.35 14.22 108.527 15.5H105.301C105.105 14.5222 104.367 14.0333 103.087 14.0333C102.447 14.0333 101.95 14.1578 101.594 14.4067C101.256 14.6555 101.087 14.9667 101.087 15.34C101.087 15.7311 101.345 16.0422 101.861 16.2733C102.376 16.5044 103.061 16.7178 103.914 16.9133C104.839 17.1267 105.683 17.3667 106.447 17.6333C107.23 17.8822 107.852 18.2644 108.314 18.78C108.776 19.2778 109.007 19.9978 109.007 20.94C109.025 21.7578 108.812 22.4955 108.367 23.1533C107.923 23.8111 107.283 24.3267 106.447 24.7C105.612 25.0733 104.625 25.26 103.487 25.26Z" fill="#808080"/>
<path d="M116.99 25.26C115.337 25.26 114.057 24.7444 113.15 23.7133C112.261 22.6822 111.817 21.1711 111.817 19.18V11.7133H115.203V18.86C115.203 19.9978 115.435 20.8689 115.897 21.4733C116.359 22.0778 117.088 22.38 118.083 22.38C119.026 22.38 119.799 22.0422 120.403 21.3667C121.026 20.6911 121.337 19.7489 121.337 18.54V11.7133H124.75V24.94H121.737L121.47 22.7C121.061 23.4822 120.466 24.1044 119.683 24.5667C118.919 25.0289 118.021 25.26 116.99 25.26Z" fill="#808080"/>
<path d="M133.722 25.26C132.548 25.26 131.517 25.0733 130.628 24.7C129.74 24.3089 129.028 23.7755 128.495 23.1C127.962 22.4244 127.642 21.6422 127.535 20.7533H130.975C131.082 21.2689 131.366 21.7133 131.828 22.0867C132.308 22.4422 132.922 22.62 133.668 22.62C134.415 22.62 134.957 22.4689 135.295 22.1667C135.651 21.8644 135.828 21.5178 135.828 21.1267C135.828 20.5578 135.58 20.1755 135.082 19.98C134.584 19.7667 133.891 19.5622 133.002 19.3667C132.433 19.2422 131.855 19.0911 131.268 18.9133C130.682 18.7355 130.14 18.5133 129.642 18.2467C129.162 17.9622 128.771 17.6067 128.468 17.18C128.166 16.7355 128.015 16.1933 128.015 15.5533C128.015 14.38 128.477 13.3933 129.402 12.5933C130.344 11.7933 131.66 11.3933 133.348 11.3933C134.913 11.3933 136.157 11.7578 137.082 12.4867C138.024 13.2155 138.584 14.22 138.762 15.5H135.535C135.34 14.5222 134.602 14.0333 133.322 14.0333C132.682 14.0333 132.184 14.1578 131.828 14.4067C131.491 14.6555 131.322 14.9667 131.322 15.34C131.322 15.7311 131.58 16.0422 132.095 16.2733C132.611 16.5044 133.295 16.7178 134.148 16.9133C135.073 17.1267 135.917 17.3667 136.682 17.6333C137.464 17.8822 138.086 18.2644 138.548 18.78C139.011 19.2778 139.242 19.9978 139.242 20.94C139.26 21.7578 139.046 22.4955 138.602 23.1533C138.157 23.8111 137.517 24.3267 136.682 24.7C135.846 25.0733 134.86 25.26 133.722 25.26Z" fill="#808080"/>
</svg>
