<svg width="156" height="31" viewBox="0 0 156 31" fill="none" xmlns="http://www.w3.org/2000/svg">
<path fill-rule="evenodd" clip-rule="evenodd" d="M2.39183 2.6967C0.985307 4.10322 0.195129 6.0109 0.195129 8V30.5H28.3202V8C28.3202 6.0109 27.53 4.10322 26.1235 2.6967C24.7169 1.29018 22.8093 0.5 20.8202 0.5C18.831 0.5 16.9234 1.29018 15.5169 2.6967C15.0165 3.19703 14.5942 3.76078 14.2577 4.36905C13.9211 3.76078 13.4988 3.19703 12.9984 2.6967C11.5919 1.29018 9.68425 0.5 7.69513 0.5C5.706 0.5 3.79835 1.29018 2.39183 2.6967ZM12.9452 28H2.44513V23C2.44513 21.6076 2.99825 20.2723 3.98282 19.2877C4.96738 18.3031 6.30274 17.75 7.69513 17.75C9.08752 17.75 10.4229 18.3031 11.4075 19.2877C12.392 20.2723 12.9451 21.6076 12.9451 23L12.9452 28ZM15.5702 28H26.0702V23C26.0702 21.6076 25.517 20.2723 24.5325 19.2877C23.5479 18.3031 22.2125 17.75 20.8202 17.75C19.4278 17.75 18.0924 18.3031 17.1078 19.2877C16.1281 20.2674 15.5756 21.5945 15.5702 22.9796V28ZM15.5702 17.6439C16.9714 16.2704 18.8561 15.5 20.8202 15.5C22.7843 15.5 24.669 16.2704 26.0702 17.644V15.5C26.0702 14.1076 25.517 12.7723 24.5325 11.7877C23.5479 10.8031 22.2125 10.25 20.8202 10.25C19.4278 10.25 18.0924 10.8031 17.1078 11.7877C16.1281 12.7674 15.5756 14.0945 15.5702 15.4796V17.6439ZM12.9452 15.5C12.9452 14.1076 12.392 12.7723 11.4075 11.7877C10.4229 10.8031 9.08752 10.25 7.69513 10.25C6.30274 10.25 4.96738 10.8031 3.98282 11.7877C2.99825 12.7723 2.44513 14.1076 2.44513 15.5V17.6439C3.84634 16.2704 5.73102 15.5 7.69513 15.5C9.65926 15.5 11.544 16.2704 12.9452 17.644V15.5ZM12.9452 10.144C11.544 8.7704 9.65926 8 7.69513 8C5.73102 8 3.84634 8.7704 2.44513 10.1439V8C2.44513 6.6076 2.99825 5.27225 3.98282 4.28769C4.96738 3.30312 6.30274 2.75 7.69513 2.75C9.08752 2.75 10.4229 3.30312 11.4075 4.28769C12.392 5.27226 12.9451 6.6076 12.9451 8L12.9452 10.144ZM15.5702 10.1439C16.9714 8.7704 18.8561 8 20.8202 8C22.7843 8 24.669 8.7704 26.0702 10.144V8C26.0702 6.6076 25.517 5.27226 24.5325 4.28769C23.5479 3.30312 22.2125 2.75 20.8202 2.75C19.4278 2.75 18.0924 3.30312 17.1078 4.28769C16.1233 5.27225 15.5701 6.6076 15.5701 8L15.5702 10.1439Z" fill="#808080"/>
<path d="M54.9068 6.6333V25.3H52.0535L41.7601 12.66V25.3H38.3201V6.6333H41.1735L51.4668 19.2733V6.6333H54.9068Z" fill="#808080"/>
<path d="M65.9884 25.4866C64.5484 25.4866 63.2506 25.1755 62.0951 24.5533C60.9395 23.9311 60.0328 23.0689 59.3751 21.9666C58.7351 20.8466 58.4151 19.5844 58.4151 18.18C58.4151 16.7755 58.7351 15.5222 59.3751 14.42C60.0328 13.3178 60.9395 12.4555 62.0951 11.8333C63.2506 11.2111 64.5484 10.9 65.9884 10.9C67.4462 10.9 68.7528 11.2111 69.9084 11.8333C71.0639 12.4555 71.9617 13.3178 72.6017 14.42C73.2595 15.5222 73.5884 16.7755 73.5884 18.18C73.5884 19.5844 73.2595 20.8466 72.6017 21.9666C71.9617 23.0689 71.0639 23.9311 69.9084 24.5533C68.7528 25.1755 67.4462 25.4866 65.9884 25.4866ZM65.9884 22.6333C67.2151 22.6333 68.2284 22.2244 69.0284 21.4066C69.8284 20.5889 70.2284 19.5133 70.2284 18.18C70.2284 16.8466 69.8284 15.7711 69.0284 14.9533C68.2284 14.1355 67.2151 13.7266 65.9884 13.7266C64.7617 13.7266 63.7484 14.1355 62.9484 14.9533C62.1662 15.7711 61.7751 16.8466 61.7751 18.18C61.7751 19.5133 62.1662 20.5889 62.9484 21.4066C63.7484 22.2244 64.7617 22.6333 65.9884 22.6333Z" fill="#808080"/>
<path d="M89.7186 11.06L83.6119 25.3H80.1719L74.0653 11.06H77.5319L81.9586 21.62L86.5186 11.06H89.7186Z" fill="#808080"/>
<path d="M104.798 18.26C104.798 18.4911 104.78 18.82 104.745 19.2466H93.5713C93.7669 20.2955 94.2735 21.1311 95.0913 21.7533C95.9269 22.3577 96.958 22.66 98.1846 22.66C99.7491 22.66 101.038 22.1444 102.051 21.1133L103.838 23.1666C103.198 23.9311 102.389 24.5089 101.411 24.9C100.434 25.2911 99.3313 25.4866 98.1046 25.4866C96.5402 25.4866 95.1624 25.1755 93.9713 24.5533C92.7802 23.9311 91.8558 23.0689 91.198 21.9666C90.558 20.8466 90.238 19.5844 90.238 18.18C90.238 16.7933 90.5491 15.5489 91.1713 14.4466C91.8113 13.3266 92.6913 12.4555 93.8113 11.8333C94.9313 11.2111 96.1935 10.9 97.598 10.9C98.9846 10.9 100.22 11.2111 101.305 11.8333C102.407 12.4378 103.26 13.3 103.865 14.42C104.487 15.5222 104.798 16.8022 104.798 18.26ZM97.598 13.5666C96.5313 13.5666 95.6246 13.8866 94.878 14.5266C94.1491 15.1489 93.7046 15.9844 93.5446 17.0333H101.625C101.483 16.0022 101.047 15.1666 100.318 14.5266C99.5891 13.8866 98.6824 13.5666 97.598 13.5666Z" fill="#808080"/>
<path d="M108 5.5133H111.333V25.3H108V5.5133Z" fill="#808080"/>
<path d="M122.108 25.4866C120.668 25.4866 119.371 25.1755 118.215 24.5533C117.059 23.9311 116.153 23.0689 115.495 21.9666C114.855 20.8466 114.535 19.5844 114.535 18.18C114.535 16.7755 114.855 15.5222 115.495 14.42C116.153 13.3178 117.059 12.4555 118.215 11.8333C119.371 11.2111 120.668 10.9 122.108 10.9C123.566 10.9 124.873 11.2111 126.028 11.8333C127.184 12.4555 128.082 13.3178 128.722 14.42C129.379 15.5222 129.708 16.7755 129.708 18.18C129.708 19.5844 129.379 20.8466 128.722 21.9666C128.082 23.0689 127.184 23.9311 126.028 24.5533C124.873 25.1755 123.566 25.4866 122.108 25.4866ZM122.108 22.6333C123.335 22.6333 124.348 22.2244 125.148 21.4066C125.948 20.5889 126.348 19.5133 126.348 18.18C126.348 16.8466 125.948 15.7711 125.148 14.9533C124.348 14.1355 123.335 13.7266 122.108 13.7266C120.882 13.7266 119.868 14.1355 119.068 14.9533C118.286 15.7711 117.895 16.8466 117.895 18.18C117.895 19.5133 118.286 20.5889 119.068 21.4066C119.868 22.2244 120.882 22.6333 122.108 22.6333Z" fill="#808080"/>
<path d="M136.069 13.14C137.029 11.6466 138.718 10.9 141.136 10.9V14.0733C140.851 14.02 140.594 13.9933 140.362 13.9933C139.065 13.9933 138.051 14.3755 137.322 15.14C136.594 15.8866 136.229 16.9711 136.229 18.3933V25.3H132.896V11.06H136.069V13.14Z" fill="#808080"/>
<path d="M149.325 10.9C151.423 10.9 153.023 11.4066 154.125 12.42C155.245 13.4155 155.805 14.9266 155.805 16.9533V25.3H152.659V23.5666C152.25 24.1889 151.663 24.6689 150.899 25.0066C150.152 25.3266 149.245 25.4866 148.179 25.4866C147.112 25.4866 146.179 25.3089 145.379 24.9533C144.579 24.58 143.956 24.0733 143.512 23.4333C143.085 22.7755 142.872 22.0378 142.872 21.22C142.872 19.94 143.343 18.9178 144.285 18.1533C145.245 17.3711 146.748 16.98 148.792 16.98H152.472V16.7666C152.472 15.7711 152.17 15.0066 151.565 14.4733C150.979 13.94 150.099 13.6733 148.925 13.6733C148.125 13.6733 147.334 13.7978 146.552 14.0466C145.788 14.2955 145.139 14.6422 144.605 15.0866L143.299 12.66C144.045 12.0911 144.943 11.6555 145.992 11.3533C147.041 11.0511 148.152 10.9 149.325 10.9ZM148.872 23.06C149.708 23.06 150.445 22.8733 151.085 22.5C151.743 22.1089 152.205 21.5578 152.472 20.8466V19.1933H149.032C147.112 19.1933 146.152 19.8244 146.152 21.0866C146.152 21.6911 146.392 22.1711 146.872 22.5266C147.352 22.8822 148.019 23.06 148.872 23.06Z" fill="#808080"/>
</svg>
