<svg width="148" height="27" viewBox="0 0 148 27" fill="none" xmlns="http://www.w3.org/2000/svg">
<path d="M12.0574 22.8399L2.23072 15.1999L0.0707169 16.8799L12.0707 26.2133L24.0707 16.8799L21.8974 15.1866L12.0574 22.8399ZM12.0707 19.4533L21.884 11.8133L24.0707 10.1199L12.0707 0.786621L0.0707169 10.1199L2.24405 11.8133L12.0707 19.4533Z" fill="#808080"/>
<path d="M45.4783 22.3599C44.2783 22.3599 43.1503 22.1359 42.0943 21.6879C41.0383 21.2239 40.1183 20.5839 39.3343 19.7679C38.5503 18.9359 37.9343 17.9759 37.4863 16.8879C37.0543 15.7999 36.8383 14.6239 36.8383 13.3599C36.8383 12.0959 37.0543 10.9279 37.4863 9.85594C37.9343 8.76794 38.5503 7.81594 39.3343 6.99994C40.1183 6.18394 41.0383 5.55194 42.0943 5.10394C43.1503 4.63994 44.2783 4.40794 45.4783 4.40794C46.9983 4.40794 48.3743 4.71994 49.6063 5.34394C50.8543 5.96794 51.8783 6.83994 52.6783 7.95994C53.4783 9.07994 53.9743 10.3759 54.1663 11.8479H50.3023C50.1743 11.0159 49.8783 10.2879 49.4143 9.66394C48.9663 9.03994 48.4063 8.55194 47.7343 8.19994C47.0783 7.84794 46.3423 7.67194 45.5263 7.67194C44.7743 7.67194 44.0943 7.80794 43.4863 8.07994C42.8943 8.35194 42.3743 8.74394 41.9263 9.25594C41.4943 9.76794 41.1583 10.3759 40.9183 11.0799C40.6943 11.7679 40.5823 12.5279 40.5823 13.3599C40.5823 14.2079 40.6943 14.9839 40.9183 15.6879C41.1583 16.3759 41.4943 16.9759 41.9263 17.4879C42.3743 17.9999 42.8943 18.3999 43.4863 18.6879C44.0943 18.9599 44.7743 19.0959 45.5263 19.0959C46.3423 19.0959 47.0863 18.9199 47.7583 18.5679C48.4303 18.1999 48.9823 17.7039 49.4143 17.0799C49.8623 16.4399 50.1583 15.7119 50.3023 14.8959H54.1663C53.9583 16.3839 53.4543 17.6879 52.6543 18.8079C51.8543 19.9279 50.8383 20.7999 49.6063 21.4239C48.3743 22.0479 46.9983 22.3599 45.4783 22.3599ZM59.7615 15.7839V21.9999H56.4255V9.18394H59.4975V11.6559C59.9775 10.8399 60.6735 10.1999 61.5855 9.73594C62.4975 9.27194 63.4655 9.03994 64.4895 9.03994V12.4959C63.5615 12.4319 62.7375 12.4799 62.0175 12.6399C61.3135 12.7839 60.7615 13.1119 60.3615 13.6239C59.9615 14.1199 59.7615 14.8399 59.7615 15.7839ZM71.6966 22.2159C70.4166 22.2159 69.2886 21.9439 68.3126 21.3999C67.3526 20.8399 66.6086 20.0559 66.0806 19.0479C65.5526 18.0399 65.2886 16.8719 65.2886 15.5439C65.2886 14.2639 65.5606 13.1279 66.1046 12.1359C66.6486 11.1439 67.4006 10.3679 68.3606 9.80794C69.3206 9.23194 70.4166 8.94394 71.6486 8.94394C72.6566 8.94394 73.5686 9.13594 74.3846 9.51994C75.2166 9.88794 75.9126 10.4159 76.4726 11.1039C77.0326 11.7919 77.4326 12.5919 77.6726 13.5039C77.9126 14.3999 77.9526 15.3679 77.7926 16.4079H67.2566V14.2959H74.2646C74.2326 13.3999 73.9686 12.6959 73.4726 12.1839C72.9926 11.6559 72.3606 11.3919 71.5766 11.3919C70.9526 11.3919 70.4246 11.5519 69.9926 11.8719C69.5606 12.1919 69.2246 12.6639 68.9846 13.2879C68.7606 13.8959 68.6486 14.6479 68.6486 15.5439C68.6486 16.4239 68.7606 17.1679 68.9846 17.7759C69.2086 18.3839 69.5446 18.8479 69.9926 19.1679C70.4406 19.4879 70.9846 19.6479 71.6246 19.6479C72.3606 19.6479 72.9686 19.4719 73.4486 19.1199C73.9286 18.7679 74.2646 18.2799 74.4566 17.6559H77.7686C77.4006 19.0959 76.6886 20.2159 75.6326 21.0159C74.5766 21.8159 73.2646 22.2159 71.6966 22.2159ZM87.6591 21.9999V20.4159C87.2431 21.0079 86.7151 21.4639 86.0751 21.7839C85.4351 22.0879 84.6751 22.2399 83.7951 22.2399C82.4671 22.2399 81.3951 21.8799 80.5791 21.1599C79.7631 20.4399 79.3551 19.4799 79.3551 18.2799C79.3551 17.0319 79.8511 16.0799 80.8431 15.4239C81.8351 14.7679 83.2591 14.4399 85.1151 14.4399C85.4831 14.4399 85.8351 14.4559 86.1711 14.4879C86.5071 14.5039 86.8671 14.5359 87.2511 14.5839V13.8159C87.2511 13.0959 87.0591 12.5359 86.6751 12.1359C86.2911 11.7359 85.7471 11.5359 85.0431 11.5359C84.3231 11.5359 83.7551 11.7359 83.3391 12.1359C82.9231 12.5359 82.6831 13.0959 82.6191 13.8159H79.6191C79.6831 12.8239 79.9471 11.9679 80.4111 11.2479C80.8911 10.5119 81.5231 9.94394 82.3071 9.54394C83.1071 9.14394 84.0191 8.94394 85.0431 8.94394C86.7231 8.94394 88.0271 9.38394 88.9551 10.2639C89.8991 11.1439 90.3711 12.3679 90.3711 13.9359V21.9999H87.6591ZM82.4991 18.1839C82.4991 18.7119 82.6751 19.1359 83.0271 19.4559C83.3951 19.7759 83.8911 19.9359 84.5151 19.9359C85.3631 19.9359 86.0271 19.7199 86.5071 19.2879C87.0031 18.8399 87.2511 18.2479 87.2511 17.5119V16.5999C86.8671 16.5359 86.5231 16.4959 86.2191 16.4799C85.9151 16.4479 85.6191 16.4319 85.3311 16.4319C84.4031 16.4319 83.6991 16.5759 83.2191 16.8639C82.7391 17.1519 82.4991 17.5919 82.4991 18.1839ZM101.026 18.7599V21.6639C100.626 21.8719 100.218 22.0159 99.8023 22.0959C99.4023 22.1919 98.9543 22.2399 98.4583 22.2399C97.5943 22.2399 96.8343 22.0799 96.1783 21.7599C95.5383 21.4239 95.0423 20.9279 94.6903 20.2719C94.3383 19.5999 94.1623 18.7919 94.1623 17.8479V12.0399H91.5703V9.18394H94.1623V5.39194H97.4743V9.18394H101.146V12.0399H97.4743V17.0799C97.4743 17.8159 97.6343 18.3519 97.9543 18.6879C98.2903 19.0079 98.7543 19.1679 99.3463 19.1679C99.6663 19.1679 99.9703 19.1359 100.258 19.0719C100.546 18.9919 100.802 18.8879 101.026 18.7599ZM106.519 21.9999H103.183V9.18394H106.519V21.9999ZM107.047 6.20794C107.047 6.76794 106.839 7.23994 106.423 7.62394C106.023 7.99194 105.487 8.17594 104.815 8.17594C104.159 8.17594 103.623 7.99194 103.207 7.62394C102.807 7.23994 102.607 6.76794 102.607 6.20794C102.607 5.61594 102.807 5.13594 103.207 4.76794C103.623 4.38394 104.159 4.19194 104.815 4.19194C105.487 4.19194 106.023 4.38394 106.423 4.76794C106.839 5.13594 107.047 5.61594 107.047 6.20794ZM121.032 9.18394L116.328 21.9999H112.68L107.952 9.18394H111.552L114.6 18.2079L117.672 9.18394H121.032ZM127.45 22.2399C126.218 22.2399 125.13 21.9599 124.186 21.3999C123.258 20.8399 122.53 20.0559 122.002 19.0479C121.474 18.0399 121.21 16.8879 121.21 15.5919C121.21 14.3119 121.474 13.1759 122.002 12.1839C122.546 11.1759 123.29 10.3839 124.234 9.80794C125.178 9.23194 126.25 8.94394 127.45 8.94394C128.554 8.94394 129.554 9.18394 130.45 9.66394C131.346 10.1279 132.074 10.7919 132.634 11.6559C133.194 12.5039 133.538 13.5039 133.666 14.6559H130.162C130.082 13.8079 129.794 13.1359 129.298 12.6399C128.818 12.1439 128.202 11.8959 127.45 11.8959C126.874 11.8959 126.37 12.0479 125.938 12.3519C125.522 12.6559 125.194 13.0799 124.954 13.6239C124.73 14.1679 124.618 14.8239 124.618 15.5919C124.618 16.3439 124.73 16.9999 124.954 17.5599C125.194 18.1199 125.522 18.5519 125.938 18.8559C126.37 19.1439 126.874 19.2879 127.45 19.2879C128.218 19.2879 128.834 19.0479 129.298 18.5679C129.778 18.0719 130.066 17.3919 130.162 16.5279H133.666C133.554 17.6959 133.218 18.7119 132.658 19.5759C132.098 20.4239 131.378 21.0799 130.498 21.5439C129.618 22.0079 128.602 22.2399 127.45 22.2399ZM141.425 22.2399C140.497 22.2399 139.633 22.0719 138.833 21.7359C138.049 21.3999 137.361 20.9279 136.769 20.3199C136.193 19.7119 135.737 19.0079 135.401 18.2079C135.081 17.3919 134.921 16.5199 134.921 15.5919C134.921 14.6479 135.081 13.7759 135.401 12.9759C135.737 12.1759 136.193 11.4719 136.769 10.8639C137.361 10.2559 138.049 9.78394 138.833 9.44794C139.633 9.11194 140.497 8.94394 141.425 8.94394C142.353 8.94394 143.209 9.11194 143.993 9.44794C144.793 9.78394 145.481 10.2559 146.057 10.8639C146.649 11.4719 147.105 12.1759 147.425 12.9759C147.761 13.7759 147.929 14.6479 147.929 15.5919C147.929 16.5199 147.761 17.3919 147.425 18.2079C147.105 19.0079 146.649 19.7119 146.057 20.3199C145.481 20.9279 144.793 21.3999 143.993 21.7359C143.209 22.0719 142.353 22.2399 141.425 22.2399ZM141.425 19.2879C141.985 19.2879 142.497 19.1439 142.961 18.8559C143.425 18.5679 143.793 18.1519 144.065 17.6079C144.353 17.0479 144.497 16.3759 144.497 15.5919C144.497 14.7919 144.353 14.1199 144.065 13.5759C143.793 13.0319 143.425 12.6239 142.961 12.3519C142.497 12.0639 141.985 11.9199 141.425 11.9199C140.881 11.9199 140.369 12.0639 139.889 12.3519C139.425 12.6239 139.049 13.0319 138.761 13.5759C138.489 14.1199 138.353 14.7919 138.353 15.5919C138.353 16.3759 138.489 17.0479 138.761 17.6079C139.049 18.1519 139.425 18.5679 139.889 18.8559C140.369 19.1439 140.881 19.2879 141.425 19.2879Z" fill="#808080"/>
</svg>
