<svg width="130" height="31" viewBox="0 0 130 31" fill="none" xmlns="http://www.w3.org/2000/svg">
<path d="M16.1784 7.76369C15.9913 8.33959 15.1767 8.33959 14.9896 7.76369L12.8581 1.20382C12.7515 0.87554 12.3989 0.69588 12.0706 0.80255L9.69291 1.57509C9.36467 1.68176 9.18501 2.03435 9.29167 2.36264L11.2806 8.48389C11.4677 9.05969 10.8086 9.53859 10.3188 9.18269L5.04565 5.35149C4.7664 5.1486 4.37554 5.21051 4.17265 5.48976L2.70319 7.51229C2.5003 7.79159 2.56221 8.18239 2.84146 8.38529L8.64769 12.6038C9.13751 12.9597 8.88577 13.7344 8.28032 13.7344H0.790009C0.444831 13.7344 0.165009 14.0142 0.165009 14.3594V16.8594C0.165009 17.2046 0.44483 17.4844 0.790009 17.4844H7.083C7.68845 17.4844 7.94018 18.2592 7.45036 18.6151L2.32094 22.3418C2.04169 22.5447 1.97978 22.9355 2.18267 23.2148L3.65214 25.2373C3.85503 25.5166 4.24588 25.5785 4.52514 25.3756L10.7325 20.8657C11.2223 20.5098 11.8814 20.9887 11.6943 21.5645L9.39616 28.6373C9.2895 28.9656 9.46915 29.3182 9.79741 29.4249L12.1751 30.1974C12.5034 30.3041 12.856 30.1244 12.9626 29.7961L14.9896 23.5578C15.1767 22.982 15.9913 22.982 16.1784 23.5578L18.1759 29.7055C18.2826 30.0338 18.6352 30.2135 18.9634 30.1068L21.3411 29.3343C21.6694 29.2276 21.849 28.875 21.7424 28.5467L19.6023 21.9603C19.4152 21.3845 20.0743 20.9057 20.5641 21.2616L26.1007 25.2841C26.3799 25.487 26.7708 25.4251 26.9737 25.1459L28.4432 23.1233C28.646 22.8441 28.5841 22.4532 28.3049 22.2503L23.3014 18.6151C22.8115 18.2592 23.0633 17.4844 23.6687 17.4844H29.54C29.8852 17.4844 30.165 17.2046 30.165 16.8594V14.3594C30.165 14.0142 29.8852 13.7344 29.54 13.7344H22.4714C21.866 13.7344 21.6142 12.9597 22.104 12.6038L27.7844 8.47679C28.0636 8.27389 28.1255 7.88299 27.9226 7.60379L26.4532 5.58123C26.2503 5.30198 25.8594 5.24007 25.5802 5.44296L20.9778 8.78679C20.488 9.14269 19.8289 8.66389 20.016 8.08799L21.8469 2.45325C21.9535 2.12496 21.7739 1.77237 21.4456 1.6657L19.0679 0.89316C18.7397 0.78649 18.3871 0.96615 18.2804 1.29444L16.1784 7.76369Z" fill="#808080"/>
<path d="M52.5383 25.26V21.6067H44.2183V6.11329H40.165V25.26H52.5383Z" fill="#808080"/>
<path d="M60.8758 25.5C64.3425 25.5 66.8225 23.66 67.6225 20.4333H63.9425C63.5158 21.8467 62.4225 22.6467 60.7958 22.6467C58.9025 22.6467 57.7825 21.3667 57.5425 19.0467H67.6491C68.3158 14.4067 65.3291 10.7533 60.8225 10.7533C56.7158 10.7533 53.7558 13.8467 53.7558 18.0867C53.7558 22.54 56.6091 25.5 60.8758 25.5ZM60.7425 13.4733C62.5025 13.4733 63.6225 14.7267 63.7291 16.7H57.5958C57.9158 14.5933 59.0091 13.4733 60.7425 13.4733Z" fill="#808080"/>
<path d="M82.463 11.02H78.7297L75.3164 21.0467L71.9297 11.02H67.9297L73.183 25.26H77.2364L82.463 11.02Z" fill="#808080"/>
<path d="M89.7821 25.5C93.2487 25.5 95.7287 23.66 96.5287 20.4333H92.8487C92.4221 21.8467 91.3287 22.6467 89.7021 22.6467C87.8087 22.6467 86.6887 21.3667 86.4487 19.0467H96.5554C97.2221 14.4067 94.2354 10.7533 89.7287 10.7533C85.6221 10.7533 82.6621 13.8467 82.6621 18.0867C82.6621 22.54 85.5154 25.5 89.7821 25.5ZM89.6487 13.4733C91.4087 13.4733 92.5287 14.7267 92.6354 16.7H86.5021C86.8221 14.5933 87.9154 13.4733 89.6487 13.4733Z" fill="#808080"/>
<path d="M102.744 18.3533C102.744 15.2067 104.851 14.46 107.998 14.7V10.86C105.704 10.86 103.491 11.9533 102.451 13.7667V11.02H99.0381V25.26H102.744V18.3533Z" fill="#808080"/>
<path d="M114.216 7.71329C114.216 6.40669 113.203 5.47333 111.736 5.47333C110.296 5.47333 109.283 6.40669 109.283 7.71329C109.283 8.96669 110.296 9.89999 111.736 9.89999C113.203 9.89999 114.216 8.96669 114.216 7.71329ZM113.63 25.26V11.02H109.923V25.26H113.63Z" fill="#808080"/>
<path d="M122.928 25.5267C126.742 25.5267 129.408 23.1 129.835 19.18H125.942C125.728 21.1267 124.635 22.2467 122.928 22.2467C120.982 22.2467 119.782 20.7 119.782 18.14C119.782 15.6067 121.008 14.0333 122.928 14.0333C124.608 14.0333 125.755 15.2067 125.942 17.1H129.835C129.382 13.26 126.635 10.7533 122.928 10.7533C118.928 10.7533 115.995 13.8733 115.995 18.14C115.995 22.4867 118.822 25.5267 122.928 25.5267Z" fill="#808080"/>
</svg>
