<svg width="14" height="14" viewBox="0 0 14 14" fill="none" xmlns="http://www.w3.org/2000/svg">
<path d="M10.6118 13.4984C10.9014 13.4992 13.5 11.5775 13.5 11.3323C13.5 11.0871 10.592 9.2551 10.3404 9.2551C10.0889 9.2551 9.24468 10.2676 9.01698 10.3802C8.78846 10.4929 7.36659 10.4524 5.78206 8.8679C4.19672 7.28413 3.6556 5.46002 3.6556 5.17356C3.6556 4.8871 4.97748 4.00244 5.014 3.79454C5.05051 3.58665 3.27154 0.500061 2.98275 0.500061C2.69395 0.500061 0.5 3.16603 0.5 3.38819C0.5 3.61036 0.700738 6.46838 4.31971 10.0865C7.93869 13.7047 10.3222 13.4969 10.6118 13.4984Z" fill="white"/>
</svg>
    